<svg xmlns="http://www.w3.org/2000/svg" xmlns:xlink="http://www.w3.org/1999/xlink" width="500" zoomAndPan="magnify" viewBox="0 0 375 374.999991" height="500" preserveAspectRatio="xMidYMid meet" version="1.0"><defs><g/><clipPath id="c081aa5b22"><path d="M 69.421875 143.8125 L 154.15625 143.8125 L 154.15625 228.542969 L 69.421875 228.542969 Z M 69.421875 143.8125 " clip-rule="nonzero"/></clipPath><clipPath id="09c82d9177"><path d="M 111.789062 143.8125 C 88.390625 143.8125 69.421875 162.78125 69.421875 186.179688 C 69.421875 209.578125 88.390625 228.542969 111.789062 228.542969 C 135.1875 228.542969 154.15625 209.578125 154.15625 186.179688 C 154.15625 162.78125 135.1875 143.8125 111.789062 143.8125 Z M 111.789062 143.8125 " clip-rule="nonzero"/></clipPath><clipPath id="2d1630a065"><path d="M 66.738281 146.457031 L 151.472656 146.457031 L 151.472656 231.1875 L 66.738281 231.1875 Z M 66.738281 146.457031 " clip-rule="nonzero"/></clipPath><clipPath id="c2b2685e01"><path d="M 109.105469 146.457031 C 85.707031 146.457031 66.738281 165.421875 66.738281 188.820312 C 66.738281 212.21875 85.707031 231.1875 109.105469 231.1875 C 132.503906 231.1875 151.472656 212.21875 151.472656 188.820312 C 151.472656 165.421875 132.503906 146.457031 109.105469 146.457031 Z M 109.105469 146.457031 " clip-rule="nonzero"/></clipPath><clipPath id="9826d33ee9"><path d="M 88 156.074219 L 139.324219 156.074219 L 139.324219 216.757812 L 88 216.757812 Z M 88 156.074219 " clip-rule="nonzero"/></clipPath><clipPath id="205224610a"><path d="M 36.972656 192 L 42 192 L 42 197 L 36.972656 197 Z M 36.972656 192 " clip-rule="nonzero"/></clipPath><clipPath id="ae5e4bc0cc"><path d="M 114 197 L 119 197 L 119 220.203125 L 114 220.203125 Z M 114 197 " clip-rule="nonzero"/></clipPath><clipPath id="73bf5a135d"><path d="M 117 202 L 121 202 L 121 220.203125 L 117 220.203125 Z M 117 202 " clip-rule="nonzero"/></clipPath><clipPath id="f8759761df"><path d="M 113 198 L 116 198 L 116 220.203125 L 113 220.203125 Z M 113 198 " clip-rule="nonzero"/></clipPath><clipPath id="c4ef4e79aa"><path d="M 111 204 L 113 204 L 113 220.203125 L 111 220.203125 Z M 111 204 " clip-rule="nonzero"/></clipPath><clipPath id="0eaa7e40b0"><path d="M 120 204 L 123 204 L 123 220.203125 L 120 220.203125 Z M 120 204 " clip-rule="nonzero"/></clipPath><clipPath id="bab4a02d9d"><path d="M 118 217 L 119 217 L 119 220.203125 L 118 220.203125 Z M 118 217 " clip-rule="nonzero"/></clipPath><clipPath id="8f2eeb0680"><path d="M 115 211 L 118 211 L 118 220.203125 L 115 220.203125 Z M 115 211 " clip-rule="nonzero"/></clipPath><clipPath id="9c08457bf9"><path d="M 107 205 L 111 205 L 111 220.203125 L 107 220.203125 Z M 107 205 " clip-rule="nonzero"/></clipPath><clipPath id="a1cf1948ac"><path d="M 108 211 L 110 211 L 110 220.203125 L 108 220.203125 Z M 108 211 " clip-rule="nonzero"/></clipPath><clipPath id="393e0a5b85"><path d="M 104.03125 208 L 108 208 L 108 220.203125 L 104.03125 220.203125 Z M 104.03125 208 " clip-rule="nonzero"/></clipPath><clipPath id="bc7b915d75"><path d="M 117 196.074219 L 119 196.074219 L 119 199 L 117 199 Z M 117 196.074219 " clip-rule="nonzero"/></clipPath><clipPath id="a0a4a9d3be"><path d="M 114 196.074219 L 117 196.074219 L 117 199 L 114 199 Z M 114 196.074219 " clip-rule="nonzero"/></clipPath><clipPath id="87dc1edc96"><path d="M 104.03125 207 L 106 207 L 106 210 L 104.03125 210 Z M 104.03125 207 " clip-rule="nonzero"/></clipPath><clipPath id="4772e2d501"><path d="M 121 203 L 123.769531 203 L 123.769531 206 L 121 206 Z M 121 203 " clip-rule="nonzero"/></clipPath><clipPath id="f70b7397ef"><path d="M 117 182 L 139.542969 182 L 139.542969 186 L 117 186 Z M 117 182 " clip-rule="nonzero"/></clipPath><clipPath id="27e057cb9f"><path d="M 122 179 L 139.542969 179 L 139.542969 184 L 122 184 Z M 122 179 " clip-rule="nonzero"/></clipPath><clipPath id="748c01f47f"><path d="M 118 184 L 139.542969 184 L 139.542969 187 L 118 187 Z M 118 184 " clip-rule="nonzero"/></clipPath><clipPath id="1283b05db2"><path d="M 123 187 L 139.542969 187 L 139.542969 189 L 123 189 Z M 123 187 " clip-rule="nonzero"/></clipPath><clipPath id="235db3c6c5"><path d="M 124 177.28125 L 139.542969 177.28125 L 139.542969 181 L 124 181 Z M 124 177.28125 " clip-rule="nonzero"/></clipPath><clipPath id="a3c2cef9a0"><path d="M 136 181 L 139.542969 181 L 139.542969 182 L 136 182 Z M 136 181 " clip-rule="nonzero"/></clipPath><clipPath id="5b12ccb8b4"><path d="M 130 182 L 139.542969 182 L 139.542969 185 L 130 185 Z M 130 182 " clip-rule="nonzero"/></clipPath><clipPath id="125d55b0a6"><path d="M 124 189 L 139.542969 189 L 139.542969 193 L 124 193 Z M 124 189 " clip-rule="nonzero"/></clipPath><clipPath id="6d25a94f92"><path d="M 131 190 L 139.542969 190 L 139.542969 191 L 131 191 Z M 131 190 " clip-rule="nonzero"/></clipPath><clipPath id="8cc43ebc54"><path d="M 128 191 L 139.542969 191 L 139.542969 195 L 128 195 Z M 128 191 " clip-rule="nonzero"/></clipPath><clipPath id="6b4ac0e4cc"><path d="M 116.148438 181 L 118 181 L 118 184 L 116.148438 184 Z M 116.148438 181 " clip-rule="nonzero"/></clipPath><clipPath id="8d5bbcedea"><path d="M 116.148438 183 L 119 183 L 119 186 L 116.148438 186 Z M 116.148438 183 " clip-rule="nonzero"/></clipPath><clipPath id="b473d22d24"><path d="M 126 193 L 129 193 L 129 195.558594 L 126 195.558594 Z M 126 193 " clip-rule="nonzero"/></clipPath><clipPath id="7c9758731e"><path d="M 122 177.28125 L 125 177.28125 L 125 179 L 122 179 Z M 122 177.28125 " clip-rule="nonzero"/></clipPath><clipPath id="21ab8e471f"><path d="M 105 155.417969 L 110 155.417969 L 110 178 L 105 178 Z M 105 155.417969 " clip-rule="nonzero"/></clipPath><clipPath id="579123b058"><path d="M 103 155.417969 L 107 155.417969 L 107 173 L 103 173 Z M 103 155.417969 " clip-rule="nonzero"/></clipPath><clipPath id="280d2e1d71"><path d="M 108 155.417969 L 111 155.417969 L 111 177 L 108 177 Z M 108 155.417969 " clip-rule="nonzero"/></clipPath><clipPath id="6ed58956f9"><path d="M 111 155.417969 L 112 155.417969 L 112 172 L 111 172 Z M 111 155.417969 " clip-rule="nonzero"/></clipPath><clipPath id="73bdf2de8a"><path d="M 101.03125 155.417969 L 104 155.417969 L 104 171 L 101.03125 171 Z M 101.03125 155.417969 " clip-rule="nonzero"/></clipPath><clipPath id="5271b5baa2"><path d="M 105 155.417969 L 106 155.417969 L 106 159 L 105 159 Z M 105 155.417969 " clip-rule="nonzero"/></clipPath><clipPath id="22bc896387"><path d="M 106 155.417969 L 109 155.417969 L 109 165 L 106 165 Z M 106 155.417969 " clip-rule="nonzero"/></clipPath><clipPath id="ec0424cdf2"><path d="M 113 155.417969 L 116 155.417969 L 116 171 L 113 171 Z M 113 155.417969 " clip-rule="nonzero"/></clipPath><clipPath id="e5e2af4fcf"><path d="M 114 155.417969 L 115 155.417969 L 115 164 L 114 164 Z M 114 155.417969 " clip-rule="nonzero"/></clipPath><clipPath id="ec3f62386b"><path d="M 115 155.417969 L 119 155.417969 L 119 167 L 115 167 Z M 115 155.417969 " clip-rule="nonzero"/></clipPath><clipPath id="b75f4e458f"><path d="M 105 176 L 107 176 L 107 178.8125 L 105 178.8125 Z M 105 176 " clip-rule="nonzero"/></clipPath><clipPath id="46fca43c67"><path d="M 107 176 L 110 176 L 110 178.8125 L 107 178.8125 Z M 107 176 " clip-rule="nonzero"/></clipPath><clipPath id="27c46436b6"><path d="M 117 166 L 119.308594 166 L 119.308594 169 L 117 169 Z M 117 166 " clip-rule="nonzero"/></clipPath><clipPath id="960d3a6ad0"><path d="M 101.03125 170 L 103 170 L 103 173 L 101.03125 173 Z M 101.03125 170 " clip-rule="nonzero"/></clipPath></defs><g clip-path="url(#c081aa5b22)"><g clip-path="url(#09c82d9177)"><path fill="#000000" d="M 69.421875 143.8125 L 154.15625 143.8125 L 154.15625 228.542969 L 69.421875 228.542969 Z M 69.421875 143.8125 " fill-opacity="1" fill-rule="nonzero"/></g></g><g clip-path="url(#2d1630a065)"><g clip-path="url(#c2b2685e01)"><path fill="#ffffff" d="M 66.738281 146.457031 L 151.472656 146.457031 L 151.472656 231.1875 L 66.738281 231.1875 Z M 66.738281 146.457031 " fill-opacity="1" fill-rule="nonzero"/></g></g><g clip-path="url(#9826d33ee9)"><path fill="#07706e" d="M 139.347656 188.503906 L 139.355469 192.257812 C 139.355469 193.648438 138.214844 194.792969 136.820312 194.792969 L 121.003906 194.796875 C 119.613281 194.796875 118.472656 195.933594 118.472656 197.332031 L 118.480469 213.804688 C 118.480469 215.195312 117.339844 216.332031 115.949219 216.332031 L 112.191406 216.332031 C 110.800781 216.332031 108.519531 216.335938 107.125 216.335938 L 103.371094 216.335938 C 101.980469 216.335938 100.839844 215.195312 100.839844 213.804688 L 100.832031 197.332031 C 100.832031 195.941406 99.699219 194.796875 98.300781 194.796875 L 88.742188 194.804688 L 88.742188 193.195312 L 93.339844 193.195312 L 93.339844 189.257812 L 90.496094 189.257812 L 90.496094 184.664062 L 95.089844 184.664062 L 95.089844 180.398438 L 92.136719 180.398438 L 92.136719 177.164062 L 98.300781 177.15625 C 99.691406 177.15625 100.832031 176.023438 100.832031 174.628906 L 100.824219 158.8125 C 100.824219 157.417969 101.960938 156.28125 103.359375 156.28125 L 107.113281 156.28125 C 108.503906 156.28125 110.78125 156.28125 112.179688 156.273438 L 115.933594 156.273438 C 117.324219 156.273438 118.464844 157.417969 118.464844 158.808594 L 118.464844 174.625 C 118.464844 176.015625 119.609375 177.15625 121 177.15625 L 136.816406 177.148438 C 138.214844 177.148438 139.347656 178.292969 139.347656 179.683594 L 139.347656 183.4375 C 139.347656 184.828125 139.347656 187.113281 139.347656 188.503906 Z M 139.347656 188.503906 " fill-opacity="1" fill-rule="nonzero"/></g><path fill="#07706e" d="M 84.476562 184.664062 L 88.742188 184.664062 L 88.742188 188.929688 L 84.476562 188.929688 Z M 84.476562 184.664062 " fill-opacity="1" fill-rule="nonzero"/><path fill="#07706e" d="M 84.476562 177.609375 L 88.742188 177.609375 L 88.742188 181.875 L 84.476562 181.875 Z M 84.476562 177.609375 " fill-opacity="1" fill-rule="nonzero"/><path fill="#07706e" d="M 81.753906 194.429688 L 86.019531 194.429688 L 86.019531 198.695312 L 81.753906 198.695312 Z M 81.753906 194.429688 " fill-opacity="1" fill-rule="nonzero"/><path fill="#07706e" d="M 77.488281 188.023438 L 81.753906 188.023438 L 81.753906 192.289062 L 77.488281 192.289062 Z M 77.488281 188.023438 " fill-opacity="1" fill-rule="nonzero"/><path fill="#07706e" d="M 76.765625 180.398438 L 81.03125 180.398438 L 81.03125 184.664062 L 76.765625 184.664062 Z M 76.765625 180.398438 " fill-opacity="1" fill-rule="nonzero"/><path fill="#07706e" d="M 73.222656 173.34375 L 77.488281 173.34375 L 77.488281 177.609375 L 73.222656 177.609375 Z M 73.222656 173.34375 " fill-opacity="1" fill-rule="nonzero"/><path fill="#07706e" d="M 65.839844 190.164062 L 70.105469 190.164062 L 70.105469 194.429688 L 65.839844 194.429688 Z M 65.839844 190.164062 " fill-opacity="1" fill-rule="nonzero"/><path fill="#07706e" d="M 63.707031 180.398438 L 67.972656 180.398438 L 67.972656 184.664062 L 63.707031 184.664062 Z M 63.707031 180.398438 " fill-opacity="1" fill-rule="nonzero"/><path fill="#07706e" d="M 55.832031 163.828125 L 60.097656 163.828125 L 60.097656 168.09375 L 55.832031 168.09375 Z M 55.832031 163.828125 " fill-opacity="1" fill-rule="nonzero"/><path fill="#07706e" d="M 53.699219 174 L 57.964844 174 L 57.964844 178.265625 L 53.699219 178.265625 Z M 53.699219 174 " fill-opacity="1" fill-rule="nonzero"/><path fill="#07706e" d="M 49.433594 187.617188 L 53.699219 187.617188 L 53.699219 191.882812 L 49.433594 191.882812 Z M 49.433594 187.617188 " fill-opacity="1" fill-rule="nonzero"/><path fill="#07706e" d="M 37.882812 178.265625 L 42.148438 178.265625 L 42.148438 182.53125 L 37.882812 182.53125 Z M 37.882812 178.265625 " fill-opacity="1" fill-rule="nonzero"/><g clip-path="url(#205224610a)"><path fill="#07706e" d="M 36.964844 192.289062 L 41.230469 192.289062 L 41.230469 196.554688 L 36.964844 196.554688 Z M 36.964844 192.289062 " fill-opacity="1" fill-rule="nonzero"/></g><g clip-path="url(#ae5e4bc0cc)"><path fill="#ffffff" d="M 114.804688 220.300781 L 114.804688 210.871094 L 118.117188 206.429688 C 118.136719 206.402344 118.148438 206.367188 118.148438 206.335938 L 118.148438 197.859375 C 118.148438 197.773438 118.078125 197.699219 117.988281 197.699219 C 117.902344 197.699219 117.832031 197.773438 117.832031 197.859375 L 117.832031 206.28125 L 114.519531 210.722656 C 114.5 210.75 114.488281 210.785156 114.488281 210.816406 L 114.488281 220.300781 C 114.488281 220.386719 114.5625 220.457031 114.648438 220.457031 C 114.734375 220.457031 114.804688 220.386719 114.804688 220.300781 " fill-opacity="1" fill-rule="nonzero"/></g><g clip-path="url(#73bf5a135d)"><path fill="#ffffff" d="M 117.40625 220.300781 L 117.40625 215.632812 L 120.71875 211.191406 C 120.738281 211.164062 120.75 211.132812 120.75 211.097656 L 120.75 202.621094 C 120.75 202.535156 120.679688 202.464844 120.589844 202.464844 C 120.503906 202.464844 120.433594 202.535156 120.433594 202.621094 L 120.433594 211.046875 L 117.121094 215.484375 C 117.101562 215.511719 117.089844 215.546875 117.089844 215.582031 L 117.089844 220.300781 C 117.089844 220.386719 117.164062 220.457031 117.25 220.457031 C 117.335938 220.457031 117.40625 220.386719 117.40625 220.300781 " fill-opacity="1" fill-rule="nonzero"/></g><g clip-path="url(#f8759761df)"><path fill="#ffffff" d="M 113.382812 220.300781 L 113.382812 207.082031 L 115.679688 204.785156 C 115.707031 204.753906 115.726562 204.714844 115.726562 204.671875 L 115.726562 198.695312 C 115.726562 198.605469 115.65625 198.535156 115.566406 198.535156 C 115.480469 198.535156 115.410156 198.605469 115.410156 198.695312 L 115.410156 204.605469 L 113.113281 206.902344 C 113.082031 206.933594 113.066406 206.972656 113.066406 207.015625 L 113.066406 220.300781 C 113.066406 220.386719 113.136719 220.457031 113.222656 220.457031 C 113.3125 220.457031 113.382812 220.386719 113.382812 220.300781 " fill-opacity="1" fill-rule="nonzero"/></g><g clip-path="url(#c4ef4e79aa)"><path fill="#ffffff" d="M 112.058594 220.300781 L 112.058594 204.320312 C 112.058594 204.234375 111.988281 204.164062 111.902344 204.164062 C 111.8125 204.164062 111.742188 204.234375 111.742188 204.320312 L 111.742188 220.300781 C 111.742188 220.386719 111.8125 220.457031 111.902344 220.457031 C 111.988281 220.457031 112.058594 220.386719 112.058594 220.300781 " fill-opacity="1" fill-rule="nonzero"/></g><g clip-path="url(#0eaa7e40b0)"><path fill="#ffffff" d="M 120.53125 220.300781 L 120.53125 214.675781 L 122.703125 211.550781 C 122.722656 211.523438 122.730469 211.492188 122.730469 211.460938 L 122.730469 204.933594 C 122.730469 204.847656 122.660156 204.777344 122.574219 204.777344 C 122.484375 204.777344 122.414062 204.847656 122.414062 204.933594 L 122.414062 211.410156 L 120.242188 214.535156 C 120.222656 214.5625 120.214844 214.59375 120.214844 214.625 L 120.214844 220.300781 C 120.214844 220.386719 120.285156 220.457031 120.371094 220.457031 C 120.457031 220.457031 120.53125 220.386719 120.53125 220.300781 " fill-opacity="1" fill-rule="nonzero"/></g><g clip-path="url(#bab4a02d9d)"><path fill="#ffffff" d="M 118.851562 220.300781 L 118.851562 217.285156 C 118.851562 217.199219 118.78125 217.128906 118.695312 217.128906 C 118.605469 217.128906 118.535156 217.199219 118.535156 217.285156 L 118.535156 220.300781 C 118.535156 220.386719 118.605469 220.457031 118.695312 220.457031 C 118.78125 220.457031 118.851562 220.386719 118.851562 220.300781 " fill-opacity="1" fill-rule="nonzero"/></g><g clip-path="url(#8f2eeb0680)"><path fill="#ffffff" d="M 117.449219 211.167969 L 115.890625 213.070312 C 115.867188 213.097656 115.851562 213.132812 115.851562 213.167969 L 115.851562 220.300781 C 115.851562 220.386719 115.925781 220.457031 116.011719 220.457031 C 116.097656 220.457031 116.167969 220.386719 116.167969 220.300781 L 116.167969 213.226562 L 117.691406 211.367188 C 117.746094 211.300781 117.738281 211.199219 117.667969 211.144531 C 117.601562 211.089844 117.503906 211.101562 117.449219 211.167969 " fill-opacity="1" fill-rule="nonzero"/></g><g clip-path="url(#9c08457bf9)"><path fill="#ffffff" d="M 107.695312 205.445312 L 110.265625 209.65625 L 110.265625 220.300781 C 110.265625 220.386719 110.335938 220.457031 110.425781 220.457031 C 110.511719 220.457031 110.582031 220.386719 110.582031 220.300781 L 110.582031 209.609375 C 110.582031 209.582031 110.574219 209.554688 110.558594 209.527344 L 107.964844 205.277344 C 107.917969 205.203125 107.824219 205.179688 107.75 205.226562 C 107.671875 205.273438 107.648438 205.367188 107.695312 205.445312 " fill-opacity="1" fill-rule="nonzero"/></g><g clip-path="url(#a1cf1948ac)"><path fill="#ffffff" d="M 109.285156 220.300781 L 109.285156 211.855469 C 109.285156 211.769531 109.214844 211.695312 109.128906 211.695312 C 109.039062 211.695312 108.96875 211.769531 108.96875 211.855469 L 108.96875 220.300781 C 108.96875 220.386719 109.039062 220.457031 109.128906 220.457031 C 109.214844 220.457031 109.285156 220.386719 109.285156 220.300781 " fill-opacity="1" fill-rule="nonzero"/></g><g clip-path="url(#393e0a5b85)"><path fill="#ffffff" d="M 107.988281 220.300781 L 107.988281 214.351562 C 107.988281 214.308594 107.972656 214.265625 107.941406 214.238281 L 105.15625 211.472656 L 105.15625 208.875 C 105.15625 208.785156 105.085938 208.714844 105 208.714844 C 104.910156 208.714844 104.839844 208.785156 104.839844 208.875 L 104.839844 211.535156 C 104.839844 211.578125 104.855469 211.617188 104.886719 211.648438 L 107.671875 214.414062 L 107.671875 220.300781 C 107.671875 220.386719 107.742188 220.457031 107.832031 220.457031 C 107.917969 220.457031 107.988281 220.386719 107.988281 220.300781 " fill-opacity="1" fill-rule="nonzero"/></g><g clip-path="url(#bc7b915d75)"><path fill="#ffffff" d="M 118.796875 197.050781 L 118.640625 197.050781 C 118.640625 197.230469 118.566406 197.390625 118.449219 197.511719 C 118.332031 197.628906 118.167969 197.699219 117.988281 197.699219 C 117.808594 197.699219 117.648438 197.628906 117.527344 197.511719 C 117.410156 197.390625 117.335938 197.230469 117.335938 197.050781 C 117.335938 196.867188 117.410156 196.707031 117.527344 196.589844 C 117.648438 196.46875 117.808594 196.398438 117.988281 196.398438 C 118.167969 196.398438 118.332031 196.46875 118.449219 196.589844 C 118.566406 196.707031 118.640625 196.867188 118.640625 197.050781 L 118.957031 197.050781 C 118.957031 196.515625 118.523438 196.082031 117.988281 196.082031 C 117.453125 196.082031 117.023438 196.515625 117.023438 197.050781 C 117.023438 197.582031 117.453125 198.015625 117.988281 198.015625 C 118.523438 198.015625 118.957031 197.582031 118.957031 197.050781 L 118.796875 197.050781 " fill-opacity="1" fill-rule="nonzero"/></g><g clip-path="url(#a0a4a9d3be)"><path fill="#ffffff" d="M 116.378906 197.859375 L 116.21875 197.859375 C 116.21875 198.039062 116.144531 198.203125 116.027344 198.320312 C 115.910156 198.4375 115.746094 198.511719 115.566406 198.511719 C 115.386719 198.511719 115.226562 198.4375 115.105469 198.320312 C 114.988281 198.203125 114.914062 198.039062 114.914062 197.859375 C 114.914062 197.679688 114.988281 197.515625 115.105469 197.398438 C 115.226562 197.28125 115.386719 197.207031 115.566406 197.207031 C 115.746094 197.207031 115.910156 197.28125 116.027344 197.398438 C 116.144531 197.515625 116.21875 197.679688 116.21875 197.859375 L 116.535156 197.859375 C 116.535156 197.324219 116.101562 196.890625 115.566406 196.890625 C 115.03125 196.890625 114.597656 197.324219 114.597656 197.859375 C 114.597656 198.394531 115.03125 198.824219 115.566406 198.828125 C 116.101562 198.824219 116.535156 198.394531 116.535156 197.859375 L 116.378906 197.859375 " fill-opacity="1" fill-rule="nonzero"/></g><path fill="#ffffff" d="M 112.710938 203.511719 L 112.550781 203.511719 C 112.550781 203.691406 112.480469 203.851562 112.359375 203.972656 C 112.242188 204.089844 112.082031 204.164062 111.902344 204.164062 C 111.71875 204.164062 111.558594 204.089844 111.4375 203.972656 C 111.320312 203.851562 111.25 203.691406 111.25 203.511719 C 111.25 203.328125 111.320312 203.167969 111.4375 203.050781 C 111.558594 202.929688 111.71875 202.859375 111.902344 202.859375 C 112.082031 202.859375 112.242188 202.929688 112.359375 203.050781 C 112.480469 203.167969 112.550781 203.328125 112.550781 203.511719 L 112.867188 203.511719 C 112.867188 202.976562 112.433594 202.542969 111.902344 202.542969 C 111.367188 202.542969 110.933594 202.976562 110.933594 203.511719 C 110.933594 204.046875 111.367188 204.476562 111.902344 204.476562 C 112.433594 204.476562 112.867188 204.046875 112.867188 203.511719 L 112.710938 203.511719 " fill-opacity="1" fill-rule="nonzero"/><path fill="#ffffff" d="M 108.191406 204.675781 L 108.03125 204.675781 C 108.03125 204.859375 107.960938 205.019531 107.839844 205.136719 C 107.722656 205.257812 107.5625 205.328125 107.378906 205.328125 C 107.199219 205.328125 107.039062 205.257812 106.917969 205.136719 C 106.800781 205.019531 106.726562 204.859375 106.726562 204.675781 C 106.726562 204.496094 106.800781 204.335938 106.917969 204.214844 C 107.039062 204.097656 107.199219 204.023438 107.378906 204.023438 C 107.5625 204.023438 107.722656 204.097656 107.839844 204.214844 C 107.960938 204.335938 108.03125 204.496094 108.03125 204.675781 L 108.347656 204.675781 C 108.347656 204.144531 107.914062 203.710938 107.378906 203.710938 C 106.84375 203.710938 106.414062 204.144531 106.414062 204.675781 C 106.414062 205.210938 106.84375 205.644531 107.378906 205.644531 C 107.914062 205.644531 108.347656 205.210938 108.347656 204.675781 L 108.191406 204.675781 " fill-opacity="1" fill-rule="nonzero"/><g clip-path="url(#87dc1edc96)"><path fill="#ffffff" d="M 105.808594 208.0625 L 105.648438 208.0625 C 105.648438 208.246094 105.578125 208.40625 105.460938 208.523438 C 105.339844 208.644531 105.179688 208.714844 105 208.714844 C 104.816406 208.714844 104.65625 208.644531 104.539062 208.523438 C 104.417969 208.40625 104.347656 208.246094 104.347656 208.0625 C 104.347656 207.882812 104.417969 207.722656 104.539062 207.601562 C 104.65625 207.484375 104.816406 207.414062 105 207.414062 C 105.179688 207.414062 105.339844 207.484375 105.460938 207.601562 C 105.578125 207.722656 105.648438 207.882812 105.648438 208.0625 L 105.964844 208.0625 C 105.964844 207.53125 105.53125 207.097656 105 207.097656 C 104.464844 207.097656 104.03125 207.53125 104.03125 208.0625 C 104.03125 208.597656 104.464844 209.03125 105 209.03125 C 105.53125 209.03125 105.964844 208.597656 105.964844 208.0625 L 105.808594 208.0625 " fill-opacity="1" fill-rule="nonzero"/></g><g clip-path="url(#4772e2d501)"><path fill="#ffffff" d="M 123.382812 204.125 L 123.226562 204.125 C 123.226562 204.304688 123.152344 204.46875 123.035156 204.585938 C 122.914062 204.703125 122.753906 204.777344 122.574219 204.777344 C 122.394531 204.777344 122.230469 204.703125 122.113281 204.585938 C 121.996094 204.46875 121.921875 204.304688 121.921875 204.125 C 121.921875 203.945312 121.996094 203.78125 122.113281 203.664062 C 122.230469 203.546875 122.394531 203.472656 122.574219 203.472656 C 122.753906 203.472656 122.914062 203.546875 123.035156 203.664062 C 123.152344 203.78125 123.226562 203.945312 123.226562 204.125 L 123.539062 204.125 C 123.539062 203.589844 123.109375 203.15625 122.574219 203.15625 C 122.039062 203.15625 121.605469 203.589844 121.605469 204.125 C 121.605469 204.660156 122.039062 205.09375 122.574219 205.09375 C 123.109375 205.09375 123.539062 204.660156 123.539062 204.125 L 123.382812 204.125 " fill-opacity="1" fill-rule="nonzero"/></g><path fill="#ffffff" d="M 119.503906 216.476562 L 119.347656 216.476562 C 119.347656 216.65625 119.273438 216.820312 119.15625 216.9375 C 119.039062 217.054688 118.875 217.128906 118.695312 217.128906 C 118.515625 217.128906 118.351562 217.054688 118.234375 216.9375 C 118.117188 216.820312 118.042969 216.65625 118.042969 216.476562 C 118.042969 216.296875 118.117188 216.132812 118.234375 216.015625 C 118.351562 215.898438 118.515625 215.824219 118.695312 215.824219 C 118.875 215.824219 119.039062 215.898438 119.15625 216.015625 C 119.273438 216.132812 119.347656 216.296875 119.347656 216.476562 L 119.660156 216.476562 C 119.660156 215.941406 119.230469 215.507812 118.695312 215.507812 C 118.160156 215.507812 117.726562 215.941406 117.726562 216.476562 C 117.726562 217.011719 118.160156 217.445312 118.695312 217.445312 C 119.230469 217.445312 119.660156 217.011719 119.660156 216.476562 L 119.503906 216.476562 " fill-opacity="1" fill-rule="nonzero"/><path fill="#ffffff" d="M 118.871094 210.625 L 118.710938 210.625 C 118.710938 210.804688 118.636719 210.964844 118.519531 211.085938 C 118.402344 211.203125 118.238281 211.277344 118.058594 211.277344 C 117.878906 211.277344 117.71875 211.203125 117.597656 211.085938 C 117.480469 210.964844 117.40625 210.804688 117.40625 210.625 C 117.40625 210.441406 117.480469 210.28125 117.597656 210.164062 C 117.71875 210.042969 117.878906 209.972656 118.058594 209.972656 C 118.238281 209.972656 118.402344 210.042969 118.519531 210.164062 C 118.636719 210.28125 118.710938 210.441406 118.710938 210.625 L 119.027344 210.625 C 119.027344 210.089844 118.59375 209.65625 118.058594 209.65625 C 117.523438 209.65625 117.09375 210.089844 117.089844 210.625 C 117.09375 211.160156 117.523438 211.589844 118.058594 211.589844 C 118.59375 211.589844 119.027344 211.160156 119.027344 210.625 L 118.871094 210.625 " fill-opacity="1" fill-rule="nonzero"/><path fill="#ffffff" d="M 109.9375 211.046875 L 109.78125 211.046875 C 109.78125 211.226562 109.707031 211.386719 109.589844 211.507812 C 109.46875 211.625 109.308594 211.695312 109.128906 211.695312 C 108.945312 211.695312 108.785156 211.625 108.667969 211.507812 C 108.546875 211.386719 108.476562 211.226562 108.476562 211.046875 C 108.476562 210.863281 108.546875 210.703125 108.667969 210.585938 C 108.785156 210.464844 108.945312 210.394531 109.128906 210.394531 C 109.308594 210.394531 109.46875 210.464844 109.589844 210.585938 C 109.707031 210.703125 109.78125 210.863281 109.78125 211.046875 L 110.09375 211.046875 C 110.09375 210.511719 109.664062 210.078125 109.128906 210.078125 C 108.59375 210.078125 108.160156 210.511719 108.160156 211.046875 C 108.160156 211.578125 108.59375 212.011719 109.128906 212.011719 C 109.664062 212.011719 110.09375 211.578125 110.09375 211.046875 L 109.9375 211.046875 " fill-opacity="1" fill-rule="nonzero"/><path fill="#ffffff" d="M 121.398438 201.8125 L 121.242188 201.8125 C 121.242188 201.992188 121.167969 202.152344 121.050781 202.273438 C 120.933594 202.390625 120.769531 202.464844 120.589844 202.464844 C 120.410156 202.464844 120.25 202.390625 120.128906 202.273438 C 120.011719 202.152344 119.9375 201.992188 119.9375 201.8125 C 119.9375 201.632812 120.011719 201.46875 120.128906 201.351562 C 120.25 201.234375 120.410156 201.160156 120.589844 201.160156 C 120.769531 201.160156 120.933594 201.234375 121.050781 201.351562 C 121.167969 201.46875 121.242188 201.632812 121.242188 201.8125 L 121.558594 201.8125 C 121.558594 201.277344 121.125 200.84375 120.589844 200.84375 C 120.054688 200.84375 119.625 201.277344 119.625 201.8125 C 119.625 202.347656 120.054688 202.777344 120.589844 202.78125 C 121.125 202.777344 121.558594 202.347656 121.558594 201.8125 L 121.398438 201.8125 " fill-opacity="1" fill-rule="nonzero"/><g clip-path="url(#f70b7397ef)"><path fill="#ffffff" d="M 139.195312 185.304688 L 130.222656 185.304688 L 125.996094 182.15625 C 125.972656 182.136719 125.941406 182.125 125.90625 182.125 L 117.84375 182.125 C 117.761719 182.125 117.695312 182.195312 117.695312 182.277344 C 117.695312 182.359375 117.761719 182.425781 117.84375 182.425781 L 125.859375 182.425781 L 130.082031 185.574219 C 130.109375 185.59375 130.140625 185.605469 130.171875 185.605469 L 139.195312 185.605469 C 139.277344 185.605469 139.34375 185.539062 139.34375 185.457031 C 139.34375 185.371094 139.277344 185.304688 139.195312 185.304688 " fill-opacity="1" fill-rule="nonzero"/></g><g clip-path="url(#27e057cb9f)"><path fill="#ffffff" d="M 139.195312 182.828125 L 134.753906 182.828125 L 130.527344 179.679688 C 130.503906 179.660156 130.472656 179.652344 130.441406 179.652344 L 122.375 179.652344 C 122.292969 179.652344 122.226562 179.71875 122.226562 179.800781 C 122.226562 179.882812 122.292969 179.953125 122.375 179.953125 L 130.390625 179.953125 L 134.613281 183.101562 C 134.640625 183.121094 134.671875 183.128906 134.703125 183.128906 L 139.195312 183.128906 C 139.277344 183.128906 139.34375 183.0625 139.34375 182.980469 C 139.34375 182.898438 139.277344 182.828125 139.195312 182.828125 " fill-opacity="1" fill-rule="nonzero"/></g><g clip-path="url(#748c01f47f)"><path fill="#ffffff" d="M 139.195312 186.660156 L 126.617188 186.660156 L 124.433594 184.472656 C 124.402344 184.445312 124.367188 184.429688 124.328125 184.429688 L 118.640625 184.429688 C 118.554688 184.429688 118.488281 184.496094 118.488281 184.582031 C 118.488281 184.664062 118.554688 184.730469 118.640625 184.730469 L 124.265625 184.730469 L 126.449219 186.917969 C 126.476562 186.945312 126.515625 186.960938 126.554688 186.960938 L 139.195312 186.960938 C 139.277344 186.960938 139.34375 186.894531 139.34375 186.808594 C 139.34375 186.726562 139.277344 186.660156 139.195312 186.660156 " fill-opacity="1" fill-rule="nonzero"/></g><g clip-path="url(#1283b05db2)"><path fill="#ffffff" d="M 139.195312 187.917969 L 123.992188 187.917969 C 123.910156 187.917969 123.839844 187.988281 123.839844 188.070312 C 123.839844 188.152344 123.910156 188.21875 123.992188 188.21875 L 139.195312 188.21875 C 139.277344 188.21875 139.34375 188.152344 139.34375 188.070312 C 139.34375 187.988281 139.277344 187.917969 139.195312 187.917969 " fill-opacity="1" fill-rule="nonzero"/></g><g clip-path="url(#235db3c6c5)"><path fill="#ffffff" d="M 139.195312 179.859375 L 133.84375 179.859375 L 130.871094 177.792969 C 130.84375 177.773438 130.816406 177.765625 130.785156 177.765625 L 124.578125 177.765625 C 124.492188 177.765625 124.425781 177.832031 124.425781 177.914062 C 124.425781 178 124.492188 178.066406 124.578125 178.066406 L 130.738281 178.066406 L 133.710938 180.132812 C 133.738281 180.152344 133.765625 180.160156 133.796875 180.160156 L 139.195312 180.160156 C 139.277344 180.160156 139.34375 180.09375 139.34375 180.011719 C 139.34375 179.925781 139.277344 179.859375 139.195312 179.859375 " fill-opacity="1" fill-rule="nonzero"/></g><g clip-path="url(#a3c2cef9a0)"><path fill="#ffffff" d="M 139.195312 181.457031 L 136.328125 181.457031 C 136.246094 181.457031 136.175781 181.523438 136.175781 181.605469 C 136.175781 181.6875 136.246094 181.753906 136.328125 181.753906 L 139.195312 181.753906 C 139.277344 181.753906 139.34375 181.6875 139.34375 181.605469 C 139.34375 181.523438 139.277344 181.457031 139.195312 181.457031 " fill-opacity="1" fill-rule="nonzero"/></g><g clip-path="url(#5b12ccb8b4)"><path fill="#ffffff" d="M 130.507812 182.792969 L 132.316406 184.273438 C 132.339844 184.296875 132.375 184.308594 132.410156 184.308594 L 139.195312 184.308594 C 139.277344 184.308594 139.34375 184.242188 139.34375 184.160156 C 139.34375 184.074219 139.277344 184.007812 139.195312 184.007812 L 132.464844 184.007812 L 130.695312 182.558594 C 130.632812 182.507812 130.539062 182.515625 130.484375 182.582031 C 130.433594 182.644531 130.441406 182.738281 130.507812 182.792969 " fill-opacity="1" fill-rule="nonzero"/></g><g clip-path="url(#125d55b0a6)"><path fill="#ffffff" d="M 125.058594 192.070312 L 129.066406 189.625 L 139.195312 189.625 C 139.277344 189.625 139.34375 189.554688 139.34375 189.472656 C 139.34375 189.390625 139.277344 189.324219 139.195312 189.324219 L 129.027344 189.324219 C 128.996094 189.324219 128.972656 189.332031 128.949219 189.34375 L 124.902344 191.8125 C 124.832031 191.855469 124.808594 191.949219 124.855469 192.019531 C 124.898438 192.089844 124.988281 192.113281 125.058594 192.070312 " fill-opacity="1" fill-rule="nonzero"/></g><g clip-path="url(#6d25a94f92)"><path fill="#ffffff" d="M 139.195312 190.558594 L 131.160156 190.558594 C 131.078125 190.558594 131.011719 190.625 131.011719 190.707031 C 131.011719 190.789062 131.078125 190.859375 131.160156 190.859375 L 139.195312 190.859375 C 139.277344 190.859375 139.34375 190.789062 139.34375 190.707031 C 139.34375 190.625 139.277344 190.558594 139.195312 190.558594 " fill-opacity="1" fill-rule="nonzero"/></g><g clip-path="url(#8cc43ebc54)"><path fill="#ffffff" d="M 139.195312 191.792969 L 133.535156 191.792969 C 133.492188 191.792969 133.457031 191.808594 133.425781 191.835938 L 130.792969 194.484375 L 128.324219 194.484375 C 128.242188 194.484375 128.171875 194.554688 128.171875 194.636719 C 128.171875 194.71875 128.242188 194.785156 128.324219 194.785156 L 130.859375 194.785156 C 130.898438 194.785156 130.9375 194.769531 130.964844 194.742188 L 133.597656 192.089844 L 139.195312 192.089844 C 139.277344 192.089844 139.34375 192.023438 139.34375 191.941406 C 139.34375 191.859375 139.277344 191.792969 139.195312 191.792969 " fill-opacity="1" fill-rule="nonzero"/></g><g clip-path="url(#6b4ac0e4cc)"><path fill="#ffffff" d="M 117.074219 181.507812 L 117.074219 181.65625 C 117.246094 181.65625 117.398438 181.726562 117.511719 181.839844 C 117.625 181.949219 117.695312 182.105469 117.695312 182.277344 C 117.695312 182.449219 117.625 182.601562 117.511719 182.714844 C 117.398438 182.828125 117.246094 182.898438 117.074219 182.898438 C 116.902344 182.898438 116.746094 182.828125 116.636719 182.714844 C 116.523438 182.601562 116.453125 182.449219 116.453125 182.277344 C 116.453125 182.105469 116.523438 181.949219 116.636719 181.839844 C 116.746094 181.726562 116.902344 181.65625 117.074219 181.65625 L 117.074219 181.355469 C 116.566406 181.355469 116.152344 181.769531 116.152344 182.277344 C 116.152344 182.785156 116.566406 183.195312 117.074219 183.195312 C 117.582031 183.195312 117.996094 182.785156 117.996094 182.277344 C 117.996094 181.769531 117.582031 181.355469 117.074219 181.355469 L 117.074219 181.507812 " fill-opacity="1" fill-rule="nonzero"/></g><g clip-path="url(#8d5bbcedea)"><path fill="#ffffff" d="M 117.84375 183.808594 L 117.84375 183.960938 C 118.015625 183.960938 118.167969 184.03125 118.28125 184.140625 C 118.394531 184.253906 118.464844 184.410156 118.464844 184.582031 C 118.464844 184.753906 118.394531 184.90625 118.28125 185.019531 C 118.167969 185.132812 118.015625 185.199219 117.84375 185.199219 C 117.671875 185.199219 117.519531 185.132812 117.40625 185.019531 C 117.292969 184.90625 117.222656 184.753906 117.222656 184.582031 C 117.222656 184.410156 117.292969 184.253906 117.40625 184.140625 C 117.519531 184.03125 117.671875 183.960938 117.84375 183.960938 L 117.84375 183.660156 C 117.335938 183.660156 116.921875 184.074219 116.921875 184.582031 C 116.921875 185.089844 117.335938 185.5 117.84375 185.5 C 118.351562 185.5 118.765625 185.089844 118.765625 184.582031 C 118.765625 184.074219 118.351562 183.660156 117.84375 183.660156 L 117.84375 183.808594 " fill-opacity="1" fill-rule="nonzero"/></g><path fill="#ffffff" d="M 123.222656 187.300781 L 123.222656 187.449219 C 123.394531 187.449219 123.546875 187.519531 123.660156 187.632812 C 123.773438 187.742188 123.839844 187.898438 123.839844 188.070312 C 123.839844 188.242188 123.773438 188.394531 123.660156 188.507812 C 123.546875 188.621094 123.394531 188.6875 123.222656 188.691406 C 123.050781 188.6875 122.894531 188.621094 122.78125 188.507812 C 122.671875 188.394531 122.601562 188.242188 122.601562 188.070312 C 122.601562 187.898438 122.671875 187.742188 122.78125 187.632812 C 122.894531 187.519531 123.050781 187.449219 123.222656 187.449219 L 123.222656 187.148438 C 122.710938 187.148438 122.300781 187.5625 122.300781 188.070312 C 122.300781 188.578125 122.710938 188.988281 123.222656 188.988281 C 123.730469 188.988281 124.140625 188.578125 124.140625 188.070312 C 124.140625 187.5625 123.730469 187.148438 123.222656 187.148438 L 123.222656 187.300781 " fill-opacity="1" fill-rule="nonzero"/><path fill="#ffffff" d="M 124.332031 191.601562 L 124.332031 191.75 C 124.503906 191.75 124.65625 191.820312 124.769531 191.929688 C 124.882812 192.042969 124.949219 192.199219 124.949219 192.371094 C 124.949219 192.542969 124.882812 192.695312 124.769531 192.808594 C 124.65625 192.921875 124.503906 192.988281 124.332031 192.988281 C 124.160156 192.988281 124.003906 192.921875 123.890625 192.808594 C 123.78125 192.695312 123.710938 192.542969 123.710938 192.371094 C 123.710938 192.199219 123.78125 192.042969 123.890625 191.933594 C 124.003906 191.820312 124.160156 191.75 124.332031 191.75 L 124.332031 191.449219 C 123.824219 191.449219 123.410156 191.863281 123.410156 192.371094 C 123.410156 192.878906 123.824219 193.289062 124.332031 193.289062 C 124.839844 193.289062 125.25 192.878906 125.25 192.371094 C 125.25 191.863281 124.839844 191.449219 124.332031 191.449219 L 124.332031 191.601562 " fill-opacity="1" fill-rule="nonzero"/><g clip-path="url(#b473d22d24)"><path fill="#ffffff" d="M 127.554688 193.867188 L 127.554688 194.015625 C 127.726562 194.015625 127.878906 194.085938 127.992188 194.199219 C 128.105469 194.308594 128.171875 194.464844 128.171875 194.636719 C 128.171875 194.808594 128.105469 194.960938 127.992188 195.074219 C 127.878906 195.1875 127.726562 195.257812 127.554688 195.257812 C 127.382812 195.257812 127.226562 195.1875 127.113281 195.074219 C 127.003906 194.960938 126.933594 194.808594 126.933594 194.636719 C 126.933594 194.464844 127.003906 194.308594 127.113281 194.199219 C 127.226562 194.085938 127.382812 194.015625 127.554688 194.015625 L 127.554688 193.714844 C 127.042969 193.714844 126.632812 194.128906 126.632812 194.636719 C 126.632812 195.144531 127.042969 195.554688 127.554688 195.554688 C 128.0625 195.554688 128.472656 195.144531 128.472656 194.636719 C 128.472656 194.128906 128.0625 193.714844 127.554688 193.714844 L 127.554688 193.867188 " fill-opacity="1" fill-rule="nonzero"/></g><g clip-path="url(#7c9758731e)"><path fill="#ffffff" d="M 123.804688 177.144531 L 123.804688 177.292969 C 123.976562 177.292969 124.132812 177.363281 124.246094 177.476562 C 124.355469 177.589844 124.425781 177.742188 124.425781 177.914062 C 124.425781 178.085938 124.355469 178.242188 124.246094 178.355469 C 124.132812 178.464844 123.976562 178.535156 123.804688 178.535156 C 123.632812 178.535156 123.480469 178.464844 123.367188 178.355469 C 123.253906 178.242188 123.1875 178.085938 123.1875 177.914062 C 123.1875 177.742188 123.253906 177.589844 123.367188 177.476562 C 123.480469 177.363281 123.632812 177.292969 123.804688 177.292969 L 123.804688 176.996094 C 123.296875 176.996094 122.886719 177.40625 122.886719 177.914062 C 122.886719 178.421875 123.296875 178.835938 123.804688 178.835938 C 124.316406 178.835938 124.726562 178.421875 124.726562 177.914062 C 124.726562 177.40625 124.316406 176.996094 123.804688 176.996094 L 123.804688 177.144531 " fill-opacity="1" fill-rule="nonzero"/></g><path fill="#ffffff" d="M 135.558594 180.835938 L 135.558594 180.984375 C 135.730469 180.984375 135.882812 181.054688 135.996094 181.167969 C 136.109375 181.28125 136.175781 181.433594 136.175781 181.605469 C 136.175781 181.777344 136.109375 181.929688 135.996094 182.042969 C 135.882812 182.15625 135.730469 182.226562 135.558594 182.226562 C 135.386719 182.226562 135.230469 182.15625 135.117188 182.042969 C 135.007812 181.929688 134.9375 181.777344 134.9375 181.605469 C 134.9375 181.433594 135.007812 181.28125 135.117188 181.167969 C 135.230469 181.054688 135.386719 180.984375 135.558594 180.984375 L 135.558594 180.683594 C 135.046875 180.683594 134.636719 181.097656 134.636719 181.605469 C 134.636719 182.113281 135.046875 182.527344 135.558594 182.527344 C 136.066406 182.527344 136.476562 182.113281 136.476562 181.605469 C 136.476562 181.097656 136.066406 180.683594 135.558594 180.683594 L 135.558594 180.835938 " fill-opacity="1" fill-rule="nonzero"/><path fill="#ffffff" d="M 129.988281 181.4375 L 129.988281 181.589844 C 130.160156 181.589844 130.316406 181.660156 130.425781 181.769531 C 130.539062 181.882812 130.609375 182.039062 130.609375 182.210938 C 130.609375 182.382812 130.539062 182.535156 130.425781 182.648438 C 130.316406 182.761719 130.160156 182.828125 129.988281 182.828125 C 129.816406 182.828125 129.664062 182.761719 129.550781 182.648438 C 129.4375 182.535156 129.367188 182.382812 129.367188 182.210938 C 129.367188 182.039062 129.4375 181.882812 129.550781 181.769531 C 129.664062 181.660156 129.816406 181.589844 129.988281 181.589844 L 129.988281 181.289062 C 129.480469 181.289062 129.070312 181.699219 129.066406 182.210938 C 129.070312 182.71875 129.480469 183.128906 129.988281 183.128906 C 130.496094 183.128906 130.910156 182.71875 130.910156 182.210938 C 130.910156 181.699219 130.496094 181.289062 129.988281 181.289062 L 129.988281 181.4375 " fill-opacity="1" fill-rule="nonzero"/><path fill="#ffffff" d="M 130.390625 189.9375 L 130.390625 190.085938 C 130.5625 190.085938 130.714844 190.15625 130.828125 190.269531 C 130.941406 190.382812 131.007812 190.535156 131.011719 190.707031 C 131.007812 190.878906 130.941406 191.03125 130.828125 191.144531 C 130.714844 191.257812 130.5625 191.328125 130.390625 191.328125 C 130.21875 191.328125 130.0625 191.257812 129.953125 191.144531 C 129.839844 191.03125 129.769531 190.878906 129.769531 190.707031 C 129.769531 190.535156 129.839844 190.382812 129.953125 190.269531 C 130.0625 190.15625 130.21875 190.085938 130.390625 190.085938 L 130.390625 189.785156 C 129.882812 189.785156 129.46875 190.199219 129.46875 190.707031 C 129.46875 191.214844 129.882812 191.628906 130.390625 191.628906 C 130.898438 191.628906 131.308594 191.214844 131.308594 190.707031 C 131.308594 190.199219 130.898438 189.785156 130.390625 189.785156 L 130.390625 189.9375 " fill-opacity="1" fill-rule="nonzero"/><path fill="#ffffff" d="M 121.605469 179.03125 L 121.605469 179.179688 C 121.777344 179.179688 121.929688 179.25 122.042969 179.363281 C 122.15625 179.476562 122.226562 179.628906 122.226562 179.800781 C 122.226562 179.972656 122.15625 180.128906 122.042969 180.238281 C 121.929688 180.351562 121.777344 180.421875 121.605469 180.421875 C 121.433594 180.421875 121.277344 180.351562 121.167969 180.238281 C 121.054688 180.128906 120.984375 179.972656 120.984375 179.800781 C 120.984375 179.628906 121.054688 179.476562 121.167969 179.363281 C 121.277344 179.25 121.433594 179.179688 121.605469 179.179688 L 121.605469 178.882812 C 121.097656 178.882812 120.683594 179.292969 120.683594 179.800781 C 120.683594 180.308594 121.097656 180.722656 121.605469 180.722656 C 122.113281 180.722656 122.527344 180.308594 122.527344 179.800781 C 122.527344 179.292969 122.113281 178.882812 121.605469 178.882812 L 121.605469 179.03125 " fill-opacity="1" fill-rule="nonzero"/><g clip-path="url(#21ab8e471f)"><path fill="#ffffff" d="M 109.054688 155.765625 L 109.054688 164.738281 L 105.90625 168.964844 C 105.886719 168.988281 105.878906 169.023438 105.878906 169.054688 L 105.878906 177.117188 C 105.878906 177.199219 105.945312 177.269531 106.027344 177.269531 C 106.109375 177.269531 106.179688 177.199219 106.179688 177.117188 L 106.179688 169.105469 L 109.328125 164.878906 C 109.347656 164.851562 109.355469 164.820312 109.355469 164.789062 L 109.355469 155.765625 C 109.355469 155.683594 109.289062 155.617188 109.207031 155.617188 C 109.125 155.617188 109.054688 155.683594 109.054688 155.765625 " fill-opacity="1" fill-rule="nonzero"/></g><g clip-path="url(#579123b058)"><path fill="#ffffff" d="M 106.582031 155.765625 L 106.582031 160.207031 L 103.433594 164.433594 C 103.414062 164.457031 103.402344 164.492188 103.402344 164.523438 L 103.402344 172.585938 C 103.402344 172.667969 103.46875 172.738281 103.550781 172.738281 C 103.636719 172.738281 103.703125 172.667969 103.703125 172.585938 L 103.703125 164.574219 L 106.851562 160.347656 C 106.871094 160.320312 106.882812 160.289062 106.882812 160.257812 L 106.882812 155.765625 C 106.882812 155.683594 106.8125 155.617188 106.730469 155.617188 C 106.648438 155.617188 106.582031 155.683594 106.582031 155.765625 " fill-opacity="1" fill-rule="nonzero"/></g><g clip-path="url(#280d2e1d71)"><path fill="#ffffff" d="M 110.410156 155.765625 L 110.410156 168.34375 L 108.226562 170.527344 C 108.199219 170.558594 108.183594 170.59375 108.183594 170.636719 L 108.183594 176.324219 C 108.183594 176.40625 108.25 176.472656 108.332031 176.472656 C 108.414062 176.472656 108.480469 176.40625 108.480469 176.324219 L 108.480469 170.699219 L 110.667969 168.511719 C 110.695312 168.484375 110.710938 168.445312 110.710938 168.40625 L 110.710938 155.765625 C 110.710938 155.683594 110.644531 155.617188 110.5625 155.617188 C 110.476562 155.617188 110.410156 155.683594 110.410156 155.765625 " fill-opacity="1" fill-rule="nonzero"/></g><g clip-path="url(#6ed58956f9)"><path fill="#ffffff" d="M 111.671875 155.765625 L 111.671875 170.96875 C 111.671875 171.054688 111.738281 171.121094 111.820312 171.121094 C 111.902344 171.121094 111.972656 171.054688 111.972656 170.96875 L 111.972656 155.765625 C 111.972656 155.683594 111.902344 155.617188 111.820312 155.617188 C 111.738281 155.617188 111.671875 155.683594 111.671875 155.765625 " fill-opacity="1" fill-rule="nonzero"/></g><g clip-path="url(#73bdf2de8a)"><path fill="#ffffff" d="M 103.609375 155.765625 L 103.609375 161.117188 L 101.542969 164.089844 C 101.523438 164.117188 101.515625 164.144531 101.515625 164.175781 L 101.515625 170.386719 C 101.515625 170.46875 101.582031 170.535156 101.667969 170.535156 C 101.75 170.535156 101.816406 170.46875 101.816406 170.386719 L 101.816406 164.222656 L 103.882812 161.25 C 103.902344 161.226562 103.910156 161.195312 103.910156 161.164062 L 103.910156 155.765625 C 103.910156 155.683594 103.84375 155.617188 103.761719 155.617188 C 103.679688 155.617188 103.609375 155.683594 103.609375 155.765625 " fill-opacity="1" fill-rule="nonzero"/></g><g clip-path="url(#5271b5baa2)"><path fill="#ffffff" d="M 105.207031 155.765625 L 105.207031 158.632812 C 105.207031 158.71875 105.273438 158.785156 105.355469 158.785156 C 105.441406 158.785156 105.507812 158.71875 105.507812 158.632812 L 105.507812 155.765625 C 105.507812 155.683594 105.441406 155.617188 105.355469 155.617188 C 105.273438 155.617188 105.207031 155.683594 105.207031 155.765625 " fill-opacity="1" fill-rule="nonzero"/></g><g clip-path="url(#22bc896387)"><path fill="#ffffff" d="M 106.542969 164.457031 L 108.027344 162.648438 C 108.046875 162.621094 108.058594 162.585938 108.058594 162.550781 L 108.058594 155.765625 C 108.058594 155.683594 107.992188 155.617188 107.910156 155.617188 C 107.828125 155.617188 107.757812 155.683594 107.757812 155.765625 L 107.757812 162.5 L 106.308594 164.265625 C 106.257812 164.328125 106.265625 164.425781 106.332031 164.476562 C 106.394531 164.527344 106.492188 164.519531 106.542969 164.457031 " fill-opacity="1" fill-rule="nonzero"/></g><g clip-path="url(#ec0424cdf2)"><path fill="#ffffff" d="M 115.820312 169.902344 L 113.375 165.894531 L 113.375 155.765625 C 113.375 155.683594 113.308594 155.617188 113.222656 155.617188 C 113.140625 155.617188 113.074219 155.683594 113.074219 155.765625 L 113.074219 165.9375 C 113.074219 165.964844 113.082031 165.992188 113.097656 166.015625 L 115.5625 170.058594 C 115.609375 170.128906 115.699219 170.152344 115.769531 170.109375 C 115.84375 170.066406 115.863281 169.972656 115.820312 169.902344 " fill-opacity="1" fill-rule="nonzero"/></g><g clip-path="url(#e5e2af4fcf)"><path fill="#ffffff" d="M 114.308594 155.765625 L 114.308594 163.800781 C 114.308594 163.882812 114.375 163.953125 114.457031 163.953125 C 114.542969 163.953125 114.609375 163.882812 114.609375 163.800781 L 114.609375 155.765625 C 114.609375 155.683594 114.542969 155.617188 114.457031 155.617188 C 114.375 155.617188 114.308594 155.683594 114.308594 155.765625 " fill-opacity="1" fill-rule="nonzero"/></g><g clip-path="url(#ec3f62386b)"><path fill="#ffffff" d="M 115.542969 155.765625 L 115.542969 161.429688 C 115.542969 161.46875 115.558594 161.507812 115.585938 161.535156 L 118.238281 164.167969 L 118.238281 166.636719 C 118.238281 166.722656 118.304688 166.789062 118.386719 166.789062 C 118.46875 166.789062 118.539062 166.722656 118.539062 166.636719 L 118.539062 164.105469 C 118.539062 164.0625 118.523438 164.027344 118.492188 163.996094 L 115.84375 161.367188 L 115.84375 155.765625 C 115.84375 155.683594 115.777344 155.617188 115.691406 155.617188 C 115.609375 155.617188 115.542969 155.683594 115.542969 155.765625 " fill-opacity="1" fill-rule="nonzero"/></g><g clip-path="url(#b75f4e458f)"><path fill="#ffffff" d="M 105.257812 177.886719 L 105.40625 177.886719 C 105.40625 177.714844 105.476562 177.5625 105.589844 177.449219 C 105.703125 177.335938 105.855469 177.269531 106.027344 177.269531 C 106.199219 177.269531 106.351562 177.335938 106.464844 177.449219 C 106.578125 177.5625 106.648438 177.714844 106.648438 177.886719 C 106.648438 178.058594 106.578125 178.214844 106.464844 178.328125 C 106.351562 178.4375 106.199219 178.507812 106.027344 178.507812 C 105.855469 178.507812 105.703125 178.4375 105.589844 178.328125 C 105.476562 178.214844 105.40625 178.058594 105.40625 177.886719 L 105.105469 177.886719 C 105.105469 178.398438 105.519531 178.808594 106.027344 178.808594 C 106.535156 178.808594 106.949219 178.398438 106.949219 177.886719 C 106.949219 177.378906 106.535156 176.96875 106.027344 176.96875 C 105.519531 176.96875 105.105469 177.378906 105.105469 177.886719 L 105.257812 177.886719 " fill-opacity="1" fill-rule="nonzero"/></g><g clip-path="url(#46fca43c67)"><path fill="#ffffff" d="M 107.5625 177.117188 L 107.710938 177.117188 C 107.710938 176.945312 107.78125 176.792969 107.894531 176.679688 C 108.007812 176.566406 108.160156 176.496094 108.332031 176.496094 C 108.503906 176.496094 108.65625 176.566406 108.769531 176.679688 C 108.882812 176.792969 108.953125 176.945312 108.953125 177.117188 C 108.953125 177.289062 108.882812 177.445312 108.769531 177.554688 C 108.65625 177.667969 108.503906 177.738281 108.332031 177.738281 C 108.160156 177.738281 108.007812 177.667969 107.894531 177.554688 C 107.78125 177.445312 107.710938 177.289062 107.710938 177.117188 L 107.410156 177.117188 C 107.410156 177.625 107.824219 178.039062 108.332031 178.039062 C 108.839844 178.039062 109.253906 177.625 109.253906 177.117188 C 109.253906 176.609375 108.839844 176.199219 108.332031 176.195312 C 107.824219 176.199219 107.410156 176.609375 107.410156 177.117188 L 107.5625 177.117188 " fill-opacity="1" fill-rule="nonzero"/></g><path fill="#ffffff" d="M 111.050781 171.742188 L 111.199219 171.742188 C 111.199219 171.570312 111.269531 171.414062 111.382812 171.300781 C 111.496094 171.191406 111.648438 171.121094 111.820312 171.121094 C 111.992188 171.121094 112.144531 171.191406 112.257812 171.300781 C 112.371094 171.414062 112.441406 171.570312 112.441406 171.742188 C 112.441406 171.914062 112.371094 172.066406 112.257812 172.179688 C 112.144531 172.292969 111.992188 172.359375 111.820312 172.359375 C 111.648438 172.359375 111.496094 172.292969 111.382812 172.179688 C 111.269531 172.066406 111.199219 171.914062 111.199219 171.742188 L 110.898438 171.742188 C 110.898438 172.25 111.3125 172.660156 111.820312 172.660156 C 112.328125 172.660156 112.742188 172.25 112.742188 171.742188 C 112.742188 171.230469 112.328125 170.820312 111.820312 170.820312 C 111.3125 170.820312 110.898438 171.230469 110.898438 171.742188 L 111.050781 171.742188 " fill-opacity="1" fill-rule="nonzero"/><path fill="#ffffff" d="M 115.351562 170.628906 L 115.5 170.628906 C 115.5 170.460938 115.570312 170.304688 115.683594 170.191406 C 115.796875 170.078125 115.949219 170.011719 116.121094 170.011719 C 116.292969 170.011719 116.445312 170.078125 116.558594 170.191406 C 116.671875 170.304688 116.742188 170.460938 116.742188 170.628906 C 116.742188 170.800781 116.671875 170.957031 116.558594 171.070312 C 116.445312 171.183594 116.292969 171.25 116.121094 171.25 C 115.949219 171.25 115.796875 171.183594 115.683594 171.070312 C 115.570312 170.957031 115.5 170.800781 115.5 170.628906 L 115.199219 170.628906 C 115.199219 171.140625 115.613281 171.550781 116.121094 171.550781 C 116.628906 171.550781 117.042969 171.140625 117.042969 170.628906 C 117.042969 170.121094 116.628906 169.710938 116.121094 169.710938 C 115.613281 169.710938 115.199219 170.121094 115.199219 170.628906 L 115.351562 170.628906 " fill-opacity="1" fill-rule="nonzero"/><g clip-path="url(#27c46436b6)"><path fill="#ffffff" d="M 117.617188 167.410156 L 117.765625 167.410156 C 117.765625 167.238281 117.835938 167.082031 117.949219 166.96875 C 118.0625 166.859375 118.214844 166.789062 118.386719 166.789062 C 118.558594 166.789062 118.714844 166.859375 118.824219 166.96875 C 118.9375 167.082031 119.007812 167.238281 119.007812 167.410156 C 119.007812 167.582031 118.9375 167.734375 118.824219 167.847656 C 118.714844 167.960938 118.558594 168.027344 118.386719 168.027344 C 118.214844 168.027344 118.0625 167.960938 117.949219 167.847656 C 117.835938 167.734375 117.765625 167.582031 117.765625 167.410156 L 117.464844 167.410156 C 117.464844 167.917969 117.878906 168.328125 118.386719 168.328125 C 118.894531 168.328125 119.308594 167.917969 119.308594 167.410156 C 119.308594 166.898438 118.894531 166.488281 118.386719 166.488281 C 117.878906 166.488281 117.464844 166.898438 117.464844 167.410156 L 117.617188 167.410156 " fill-opacity="1" fill-rule="nonzero"/></g><g clip-path="url(#960d3a6ad0)"><path fill="#ffffff" d="M 100.894531 171.15625 L 101.046875 171.15625 C 101.046875 170.984375 101.117188 170.828125 101.226562 170.71875 C 101.339844 170.605469 101.496094 170.535156 101.667969 170.535156 C 101.835938 170.535156 101.992188 170.605469 102.105469 170.71875 C 102.21875 170.828125 102.285156 170.984375 102.285156 171.15625 C 102.285156 171.328125 102.21875 171.480469 102.105469 171.59375 C 101.992188 171.707031 101.835938 171.777344 101.667969 171.777344 C 101.496094 171.777344 101.339844 171.707031 101.226562 171.59375 C 101.117188 171.480469 101.046875 171.328125 101.046875 171.15625 L 100.746094 171.15625 C 100.746094 171.664062 101.15625 172.078125 101.667969 172.078125 C 102.175781 172.078125 102.585938 171.664062 102.585938 171.15625 C 102.585938 170.648438 102.175781 170.234375 101.667969 170.234375 C 101.15625 170.234375 100.746094 170.648438 100.746094 171.15625 L 100.894531 171.15625 " fill-opacity="1" fill-rule="nonzero"/></g><path fill="#ffffff" d="M 104.585938 159.40625 L 104.734375 159.40625 C 104.734375 159.234375 104.804688 159.078125 104.917969 158.964844 C 105.03125 158.855469 105.183594 158.785156 105.355469 158.785156 C 105.527344 158.785156 105.683594 158.855469 105.796875 158.964844 C 105.90625 159.078125 105.976562 159.234375 105.976562 159.40625 C 105.976562 159.578125 105.90625 159.730469 105.796875 159.84375 C 105.683594 159.957031 105.527344 160.023438 105.355469 160.023438 C 105.183594 160.023438 105.03125 159.957031 104.917969 159.84375 C 104.804688 159.730469 104.734375 159.578125 104.734375 159.40625 L 104.4375 159.40625 C 104.4375 159.914062 104.847656 160.324219 105.355469 160.324219 C 105.863281 160.324219 106.277344 159.914062 106.277344 159.40625 C 106.277344 158.894531 105.863281 158.484375 105.355469 158.484375 C 104.847656 158.484375 104.4375 158.894531 104.4375 159.40625 L 104.585938 159.40625 " fill-opacity="1" fill-rule="nonzero"/><path fill="#ffffff" d="M 105.191406 164.972656 L 105.339844 164.972656 C 105.339844 164.800781 105.410156 164.648438 105.523438 164.535156 C 105.636719 164.421875 105.789062 164.351562 105.960938 164.351562 C 106.132812 164.351562 106.285156 164.421875 106.398438 164.535156 C 106.511719 164.648438 106.582031 164.800781 106.582031 164.972656 C 106.582031 165.144531 106.511719 165.296875 106.398438 165.410156 C 106.285156 165.523438 106.132812 165.59375 105.960938 165.59375 C 105.789062 165.59375 105.636719 165.523438 105.523438 165.410156 C 105.410156 165.296875 105.339844 165.144531 105.339844 164.972656 L 105.039062 164.972656 C 105.039062 165.480469 105.453125 165.894531 105.960938 165.894531 C 106.46875 165.894531 106.882812 165.480469 106.882812 164.972656 C 106.882812 164.464844 106.46875 164.050781 105.960938 164.050781 C 105.453125 164.050781 105.039062 164.464844 105.039062 164.972656 L 105.191406 164.972656 " fill-opacity="1" fill-rule="nonzero"/><path fill="#ffffff" d="M 113.6875 164.574219 L 113.839844 164.574219 C 113.839844 164.402344 113.90625 164.246094 114.019531 164.132812 C 114.132812 164.019531 114.285156 163.953125 114.457031 163.953125 C 114.628906 163.953125 114.785156 164.019531 114.898438 164.132812 C 115.007812 164.246094 115.078125 164.402344 115.078125 164.574219 C 115.078125 164.742188 115.007812 164.898438 114.898438 165.011719 C 114.785156 165.125 114.628906 165.191406 114.457031 165.191406 C 114.285156 165.191406 114.132812 165.125 114.019531 165.011719 C 113.90625 164.898438 113.839844 164.742188 113.839844 164.574219 L 113.539062 164.574219 C 113.539062 165.082031 113.949219 165.492188 114.457031 165.492188 C 114.96875 165.492188 115.378906 165.082031 115.378906 164.574219 C 115.378906 164.0625 114.96875 163.652344 114.457031 163.652344 C 113.949219 163.652344 113.539062 164.0625 113.539062 164.574219 L 113.6875 164.574219 " fill-opacity="1" fill-rule="nonzero"/><path fill="#ffffff" d="M 102.78125 173.355469 L 102.933594 173.355469 C 102.933594 173.183594 103 173.03125 103.113281 172.917969 C 103.226562 172.804688 103.378906 172.738281 103.550781 172.738281 C 103.722656 172.738281 103.878906 172.804688 103.992188 172.917969 C 104.101562 173.03125 104.171875 173.183594 104.171875 173.355469 C 104.171875 173.527344 104.101562 173.683594 103.992188 173.796875 C 103.878906 173.90625 103.722656 173.976562 103.550781 173.976562 C 103.378906 173.976562 103.226562 173.90625 103.113281 173.796875 C 103 173.683594 102.933594 173.527344 102.933594 173.355469 L 102.632812 173.355469 C 102.632812 173.867188 103.042969 174.277344 103.550781 174.277344 C 104.0625 174.277344 104.472656 173.867188 104.472656 173.355469 C 104.472656 172.847656 104.0625 172.4375 103.550781 172.4375 C 103.042969 172.4375 102.632812 172.847656 102.632812 173.355469 L 102.78125 173.355469 " fill-opacity="1" fill-rule="nonzero"/><g fill="#07706e" fill-opacity="1"><g transform="translate(167.467801, 193.265098)"><g><path d="M 2.546875 0.109375 C 2.097656 0.109375 1.707031 0.0351562 1.375 -0.109375 C 1.039062 -0.265625 0.785156 -0.476562 0.609375 -0.75 C 0.429688 -1.03125 0.34375 -1.359375 0.34375 -1.734375 L 1.5625 -1.734375 C 1.5625 -1.472656 1.648438 -1.269531 1.828125 -1.125 C 2.003906 -0.976562 2.242188 -0.90625 2.546875 -0.90625 C 2.804688 -0.90625 3.007812 -0.957031 3.15625 -1.0625 C 3.3125 -1.164062 3.390625 -1.304688 3.390625 -1.484375 C 3.390625 -1.679688 3.296875 -1.835938 3.109375 -1.953125 C 2.929688 -2.066406 2.648438 -2.164062 2.265625 -2.25 C 1.628906 -2.382812 1.15625 -2.585938 0.84375 -2.859375 C 0.539062 -3.140625 0.390625 -3.5 0.390625 -3.9375 C 0.390625 -4.4375 0.570312 -4.832031 0.9375 -5.125 C 1.300781 -5.414062 1.796875 -5.5625 2.421875 -5.5625 C 2.847656 -5.5625 3.21875 -5.484375 3.53125 -5.328125 C 3.851562 -5.179688 4.097656 -4.972656 4.265625 -4.703125 C 4.441406 -4.441406 4.53125 -4.128906 4.53125 -3.765625 L 3.34375 -3.765625 C 3.34375 -4.003906 3.257812 -4.191406 3.09375 -4.328125 C 2.9375 -4.472656 2.71875 -4.546875 2.4375 -4.546875 C 2.175781 -4.546875 1.96875 -4.492188 1.8125 -4.390625 C 1.664062 -4.285156 1.59375 -4.144531 1.59375 -3.96875 C 1.59375 -3.800781 1.675781 -3.660156 1.84375 -3.546875 C 2.007812 -3.429688 2.300781 -3.328125 2.71875 -3.234375 C 3.394531 -3.066406 3.882812 -2.847656 4.1875 -2.578125 C 4.488281 -2.304688 4.640625 -1.957031 4.640625 -1.53125 C 4.640625 -1.019531 4.453125 -0.617188 4.078125 -0.328125 C 3.710938 -0.0351562 3.203125 0.109375 2.546875 0.109375 Z M 2.546875 0.109375 "/></g></g></g><g fill="#07706e" fill-opacity="1"><g transform="translate(174.285407, 193.265098)"><g><path d="M 3.234375 0.109375 C 2.671875 0.109375 2.171875 -0.0078125 1.734375 -0.25 C 1.296875 -0.488281 0.953125 -0.820312 0.703125 -1.25 C 0.453125 -1.675781 0.328125 -2.164062 0.328125 -2.71875 C 0.328125 -3.28125 0.453125 -3.769531 0.703125 -4.1875 C 0.953125 -4.613281 1.296875 -4.945312 1.734375 -5.1875 C 2.171875 -5.4375 2.671875 -5.5625 3.234375 -5.5625 C 3.804688 -5.5625 4.3125 -5.4375 4.75 -5.1875 C 5.1875 -4.945312 5.523438 -4.613281 5.765625 -4.1875 C 6.015625 -3.769531 6.140625 -3.28125 6.140625 -2.71875 C 6.140625 -2.164062 6.015625 -1.675781 5.765625 -1.25 C 5.523438 -0.820312 5.1875 -0.488281 4.75 -0.25 C 4.3125 -0.0078125 3.804688 0.109375 3.234375 0.109375 Z M 1.59375 -2.71875 C 1.59375 -2.394531 1.660156 -2.109375 1.796875 -1.859375 C 1.941406 -1.609375 2.132812 -1.410156 2.375 -1.265625 C 2.625 -1.128906 2.910156 -1.0625 3.234375 -1.0625 C 3.566406 -1.0625 3.851562 -1.128906 4.09375 -1.265625 C 4.34375 -1.410156 4.535156 -1.609375 4.671875 -1.859375 C 4.804688 -2.109375 4.875 -2.394531 4.875 -2.71875 C 4.875 -3.050781 4.804688 -3.335938 4.671875 -3.578125 C 4.535156 -3.828125 4.34375 -4.019531 4.09375 -4.15625 C 3.851562 -4.300781 3.566406 -4.375 3.234375 -4.375 C 2.910156 -4.375 2.625 -4.300781 2.375 -4.15625 C 2.132812 -4.019531 1.941406 -3.828125 1.796875 -3.578125 C 1.660156 -3.335938 1.59375 -3.050781 1.59375 -2.71875 Z M 1.59375 -2.71875 "/></g></g></g><g fill="#07706e" fill-opacity="1"><g transform="translate(182.595584, 193.265098)"><g><path d="M 0.65625 0 L 0.65625 -5.453125 L 1.890625 -5.453125 L 1.890625 -1.15625 L 4.265625 -1.15625 L 4.265625 0 Z M 0.65625 0 "/></g></g></g><g fill="#07706e" fill-opacity="1"><g transform="translate(188.907898, 193.265098)"><g><path d="M 2.875 0.109375 C 2.40625 0.109375 2 0.015625 1.65625 -0.171875 C 1.320312 -0.359375 1.0625 -0.628906 0.875 -0.984375 C 0.6875 -1.335938 0.59375 -1.753906 0.59375 -2.234375 L 0.59375 -5.453125 L 1.84375 -5.453125 L 1.84375 -2.328125 C 1.84375 -1.484375 2.1875 -1.0625 2.875 -1.0625 C 3.570312 -1.0625 3.921875 -1.484375 3.921875 -2.328125 L 3.921875 -5.453125 L 5.15625 -5.453125 L 5.15625 -2.234375 C 5.15625 -1.753906 5.0625 -1.335938 4.875 -0.984375 C 4.695312 -0.628906 4.4375 -0.359375 4.09375 -0.171875 C 3.757812 0.015625 3.351562 0.109375 2.875 0.109375 Z M 2.875 0.109375 "/></g></g></g><g fill="#07706e" fill-opacity="1"><g transform="translate(196.495118, 193.265098)"><g><path d="M 1.953125 0 L 1.953125 -4.28125 L 0.234375 -4.28125 L 0.234375 -5.453125 L 4.921875 -5.453125 L 4.921875 -4.28125 L 3.203125 -4.28125 L 3.203125 0 Z M 1.953125 0 "/></g></g></g><g fill="#07706e" fill-opacity="1"><g transform="translate(203.483753, 193.265098)"><g><path d="M 0.65625 0 L 0.65625 -5.453125 L 1.890625 -5.453125 L 1.890625 0 Z M 0.65625 0 "/></g></g></g><g fill="#07706e" fill-opacity="1"><g transform="translate(207.86039, 193.265098)"><g><path d="M 3.234375 0.109375 C 2.671875 0.109375 2.171875 -0.0078125 1.734375 -0.25 C 1.296875 -0.488281 0.953125 -0.820312 0.703125 -1.25 C 0.453125 -1.675781 0.328125 -2.164062 0.328125 -2.71875 C 0.328125 -3.28125 0.453125 -3.769531 0.703125 -4.1875 C 0.953125 -4.613281 1.296875 -4.945312 1.734375 -5.1875 C 2.171875 -5.4375 2.671875 -5.5625 3.234375 -5.5625 C 3.804688 -5.5625 4.3125 -5.4375 4.75 -5.1875 C 5.1875 -4.945312 5.523438 -4.613281 5.765625 -4.1875 C 6.015625 -3.769531 6.140625 -3.28125 6.140625 -2.71875 C 6.140625 -2.164062 6.015625 -1.675781 5.765625 -1.25 C 5.523438 -0.820312 5.1875 -0.488281 4.75 -0.25 C 4.3125 -0.0078125 3.804688 0.109375 3.234375 0.109375 Z M 1.59375 -2.71875 C 1.59375 -2.394531 1.660156 -2.109375 1.796875 -1.859375 C 1.941406 -1.609375 2.132812 -1.410156 2.375 -1.265625 C 2.625 -1.128906 2.910156 -1.0625 3.234375 -1.0625 C 3.566406 -1.0625 3.851562 -1.128906 4.09375 -1.265625 C 4.34375 -1.410156 4.535156 -1.609375 4.671875 -1.859375 C 4.804688 -2.109375 4.875 -2.394531 4.875 -2.71875 C 4.875 -3.050781 4.804688 -3.335938 4.671875 -3.578125 C 4.535156 -3.828125 4.34375 -4.019531 4.09375 -4.15625 C 3.851562 -4.300781 3.566406 -4.375 3.234375 -4.375 C 2.910156 -4.375 2.625 -4.300781 2.375 -4.15625 C 2.132812 -4.019531 1.941406 -3.828125 1.796875 -3.578125 C 1.660156 -3.335938 1.59375 -3.050781 1.59375 -2.71875 Z M 1.59375 -2.71875 "/></g></g></g><g fill="#07706e" fill-opacity="1"><g transform="translate(216.170565, 193.265098)"><g><path d="M 0.65625 0 L 0.65625 -5.453125 L 1.703125 -5.453125 L 4.109375 -2.125 L 4.109375 -5.453125 L 5.34375 -5.453125 L 5.34375 0 L 4.28125 0 L 1.890625 -3.34375 L 1.890625 0 Z M 0.65625 0 "/></g></g></g><g fill="#07706e" fill-opacity="1"><g transform="translate(223.990999, 193.265098)"><g><path d="M 2.546875 0.109375 C 2.097656 0.109375 1.707031 0.0351562 1.375 -0.109375 C 1.039062 -0.265625 0.785156 -0.476562 0.609375 -0.75 C 0.429688 -1.03125 0.34375 -1.359375 0.34375 -1.734375 L 1.5625 -1.734375 C 1.5625 -1.472656 1.648438 -1.269531 1.828125 -1.125 C 2.003906 -0.976562 2.242188 -0.90625 2.546875 -0.90625 C 2.804688 -0.90625 3.007812 -0.957031 3.15625 -1.0625 C 3.3125 -1.164062 3.390625 -1.304688 3.390625 -1.484375 C 3.390625 -1.679688 3.296875 -1.835938 3.109375 -1.953125 C 2.929688 -2.066406 2.648438 -2.164062 2.265625 -2.25 C 1.628906 -2.382812 1.15625 -2.585938 0.84375 -2.859375 C 0.539062 -3.140625 0.390625 -3.5 0.390625 -3.9375 C 0.390625 -4.4375 0.570312 -4.832031 0.9375 -5.125 C 1.300781 -5.414062 1.796875 -5.5625 2.421875 -5.5625 C 2.847656 -5.5625 3.21875 -5.484375 3.53125 -5.328125 C 3.851562 -5.179688 4.097656 -4.972656 4.265625 -4.703125 C 4.441406 -4.441406 4.53125 -4.128906 4.53125 -3.765625 L 3.34375 -3.765625 C 3.34375 -4.003906 3.257812 -4.191406 3.09375 -4.328125 C 2.9375 -4.472656 2.71875 -4.546875 2.4375 -4.546875 C 2.175781 -4.546875 1.96875 -4.492188 1.8125 -4.390625 C 1.664062 -4.285156 1.59375 -4.144531 1.59375 -3.96875 C 1.59375 -3.800781 1.675781 -3.660156 1.84375 -3.546875 C 2.007812 -3.429688 2.300781 -3.328125 2.71875 -3.234375 C 3.394531 -3.066406 3.882812 -2.847656 4.1875 -2.578125 C 4.488281 -2.304688 4.640625 -1.957031 4.640625 -1.53125 C 4.640625 -1.019531 4.453125 -0.617188 4.078125 -0.328125 C 3.710938 -0.0351562 3.203125 0.109375 2.546875 0.109375 Z M 2.546875 0.109375 "/></g></g></g><g fill="#07706e" fill-opacity="1"><g transform="translate(230.808606, 193.265098)"><g/></g></g><g fill="#07706e" fill-opacity="1"><g transform="translate(234.470056, 193.265098)"><g><path d="M 1.953125 0 L 1.953125 -4.28125 L 0.234375 -4.28125 L 0.234375 -5.453125 L 4.921875 -5.453125 L 4.921875 -4.28125 L 3.203125 -4.28125 L 3.203125 0 Z M 1.953125 0 "/></g></g></g><g fill="#07706e" fill-opacity="1"><g transform="translate(241.458691, 193.265098)"><g><path d="M 4.015625 0 L 4.015625 -2.1875 L 1.890625 -2.1875 L 1.890625 0 L 0.65625 0 L 0.65625 -5.453125 L 1.890625 -5.453125 L 1.890625 -3.359375 L 4.015625 -3.359375 L 4.015625 -5.453125 L 5.265625 -5.453125 L 5.265625 0 Z M 4.015625 0 "/></g></g></g><g fill="#07706e" fill-opacity="1"><g transform="translate(249.20139, 193.265098)"><g><path d="M 0.0625 0 L 2.234375 -5.453125 L 3.453125 -5.453125 L 5.609375 0 L 4.28125 0 L 3.921875 -0.9375 L 1.765625 -0.9375 L 1.390625 0 Z M 2.078125 -1.921875 L 3.609375 -1.921875 L 2.84375 -3.90625 Z M 2.078125 -1.921875 "/></g></g></g><g fill="#07706e" fill-opacity="1"><g transform="translate(256.710861, 193.265098)"><g><path d="M 1.953125 0 L 1.953125 -4.28125 L 0.234375 -4.28125 L 0.234375 -5.453125 L 4.921875 -5.453125 L 4.921875 -4.28125 L 3.203125 -4.28125 L 3.203125 0 Z M 1.953125 0 "/></g></g></g><g fill="#07706e" fill-opacity="1"><g transform="translate(263.699496, 193.265098)"><g/></g></g><g fill="#07706e" fill-opacity="1"><g transform="translate(267.360946, 193.265098)"><g><path d="M 3.15625 0.109375 C 2.601562 0.109375 2.113281 -0.0078125 1.6875 -0.25 C 1.257812 -0.488281 0.925781 -0.820312 0.6875 -1.25 C 0.445312 -1.675781 0.328125 -2.164062 0.328125 -2.71875 C 0.328125 -3.28125 0.445312 -3.769531 0.6875 -4.1875 C 0.925781 -4.613281 1.253906 -4.945312 1.671875 -5.1875 C 2.097656 -5.4375 2.585938 -5.5625 3.140625 -5.5625 C 3.609375 -5.5625 4.03125 -5.472656 4.40625 -5.296875 C 4.789062 -5.117188 5.113281 -4.867188 5.375 -4.546875 C 5.644531 -4.222656 5.828125 -3.84375 5.921875 -3.40625 L 4.65625 -3.40625 C 4.550781 -3.707031 4.363281 -3.941406 4.09375 -4.109375 C 3.832031 -4.285156 3.53125 -4.375 3.1875 -4.375 C 2.875 -4.375 2.597656 -4.300781 2.359375 -4.15625 C 2.117188 -4.019531 1.929688 -3.828125 1.796875 -3.578125 C 1.660156 -3.335938 1.59375 -3.050781 1.59375 -2.71875 C 1.59375 -2.394531 1.660156 -2.109375 1.796875 -1.859375 C 1.929688 -1.609375 2.117188 -1.410156 2.359375 -1.265625 C 2.597656 -1.128906 2.867188 -1.0625 3.171875 -1.0625 C 3.535156 -1.0625 3.847656 -1.15625 4.109375 -1.34375 C 4.378906 -1.53125 4.570312 -1.773438 4.6875 -2.078125 L 5.96875 -2.078125 C 5.882812 -1.640625 5.707031 -1.253906 5.4375 -0.921875 C 5.175781 -0.597656 4.847656 -0.34375 4.453125 -0.15625 C 4.066406 0.0195312 3.632812 0.109375 3.15625 0.109375 Z M 3.15625 0.109375 "/></g></g></g><g fill="#07706e" fill-opacity="1"><g transform="translate(275.469008, 193.265098)"><g><path d="M 0.0625 0 L 2.234375 -5.453125 L 3.453125 -5.453125 L 5.609375 0 L 4.28125 0 L 3.921875 -0.9375 L 1.765625 -0.9375 L 1.390625 0 Z M 2.078125 -1.921875 L 3.609375 -1.921875 L 2.84375 -3.90625 Z M 2.078125 -1.921875 "/></g></g></g><g fill="#07706e" fill-opacity="1"><g transform="translate(282.978485, 193.265098)"><g><path d="M 0.65625 0 L 0.65625 -5.453125 L 2.984375 -5.453125 C 3.398438 -5.453125 3.757812 -5.375 4.0625 -5.21875 C 4.363281 -5.070312 4.597656 -4.859375 4.765625 -4.578125 C 4.929688 -4.296875 5.015625 -3.960938 5.015625 -3.578125 C 5.015625 -3.171875 4.921875 -2.820312 4.734375 -2.53125 C 4.554688 -2.25 4.304688 -2.035156 3.984375 -1.890625 L 5.109375 0 L 3.6875 0 L 2.703125 -1.703125 L 1.890625 -1.703125 L 1.890625 0 Z M 1.875 -2.734375 L 2.8125 -2.734375 C 3.125 -2.734375 3.359375 -2.804688 3.515625 -2.953125 C 3.679688 -3.097656 3.765625 -3.300781 3.765625 -3.5625 C 3.765625 -3.820312 3.679688 -4.023438 3.515625 -4.171875 C 3.359375 -4.316406 3.125 -4.390625 2.8125 -4.390625 L 1.875 -4.390625 Z M 1.875 -2.734375 "/></g></g></g><g fill="#07706e" fill-opacity="1"><g transform="translate(290.285846, 193.265098)"><g><path d="M 0.65625 0 L 0.65625 -5.453125 L 4.234375 -5.453125 L 4.234375 -4.40625 L 1.890625 -4.40625 L 1.890625 -3.28125 L 4.015625 -3.28125 L 4.015625 -2.234375 L 1.890625 -2.234375 L 1.890625 -1.046875 L 4.3125 -1.046875 L 4.3125 0 Z M 0.65625 0 "/></g></g></g><g fill="#000000" fill-opacity="1"><g transform="translate(165.29743, 175.870827)"><g><path d="M 13.28125 0 L 9.515625 0 L 4.75 -8.328125 L 4.75 0 L 1.1875 0 L 1.1875 -13.875 L 4.953125 -13.875 L 9.703125 -5.546875 L 9.703125 -13.875 L 13.28125 -13.875 Z M 13.28125 0 "/></g></g></g><g fill="#000000" fill-opacity="1"><g transform="translate(181.266207, 175.870827)"><g><path d="M 10.109375 -13.875 L 13.671875 -13.875 L 13.671875 -3.765625 C 13.671875 -2.378906 13.351562 -1.367188 12.71875 -0.734375 C 12.09375 -0.109375 11.085938 0.203125 9.703125 0.203125 L 5.15625 0.203125 C 3.769531 0.203125 2.757812 -0.109375 2.125 -0.734375 C 1.5 -1.367188 1.1875 -2.378906 1.1875 -3.765625 L 1.1875 -13.875 L 4.75 -13.875 L 4.75 -3.765625 C 4.75 -2.972656 5.144531 -2.578125 5.9375 -2.578125 L 8.921875 -2.578125 C 9.710938 -2.578125 10.109375 -2.972656 10.109375 -3.765625 Z M 10.109375 -13.875 "/></g></g></g><g fill="#000000" fill-opacity="1"><g transform="translate(197.631227, 175.870827)"><g><path d="M 1.1875 -13.875 L 9.515625 -13.875 C 10.898438 -13.875 11.90625 -13.554688 12.53125 -12.921875 C 13.15625 -12.296875 13.46875 -11.289062 13.46875 -9.90625 L 13.46875 -8.125 C 13.46875 -7.03125 13.285156 -6.175781 12.921875 -5.5625 C 12.566406 -4.957031 11.988281 -4.554688 11.1875 -4.359375 L 13.671875 0 L 9.8125 0 L 7.53125 -4.15625 L 4.75 -4.15625 L 4.75 0 L 1.1875 0 Z M 9.90625 -9.90625 C 9.90625 -10.695312 9.507812 -11.09375 8.71875 -11.09375 L 4.75 -11.09375 L 4.75 -6.9375 L 8.71875 -6.9375 C 9.507812 -6.9375 9.90625 -7.332031 9.90625 -8.125 Z M 9.90625 -9.90625 "/></g></g></g><g fill="#000000" fill-opacity="1"><g transform="translate(213.401887, 175.870827)"><g><path d="M 0.765625 -2.875 C 4.390625 -2.675781 6.84375 -2.578125 8.125 -2.578125 C 8.425781 -2.578125 8.664062 -2.664062 8.84375 -2.84375 C 9.019531 -3.019531 9.109375 -3.257812 9.109375 -3.5625 L 9.109375 -5.34375 L 4.5625 -5.34375 C 3.175781 -5.34375 2.164062 -5.65625 1.53125 -6.28125 C 0.90625 -6.914062 0.59375 -7.925781 0.59375 -9.3125 L 0.59375 -9.90625 C 0.59375 -11.289062 0.90625 -12.296875 1.53125 -12.921875 C 2.164062 -13.554688 3.175781 -13.875 4.5625 -13.875 L 11.515625 -13.875 L 11.515625 -11.09375 L 5.34375 -11.09375 C 4.550781 -11.09375 4.15625 -10.695312 4.15625 -9.90625 L 4.15625 -9.515625 C 4.15625 -8.722656 4.550781 -8.328125 5.34375 -8.328125 L 8.921875 -8.328125 C 10.210938 -8.328125 11.160156 -8.019531 11.765625 -7.40625 C 12.378906 -6.800781 12.6875 -5.851562 12.6875 -4.5625 L 12.6875 -3.5625 C 12.6875 -2.269531 12.378906 -1.316406 11.765625 -0.703125 C 11.160156 -0.0976562 10.210938 0.203125 8.921875 0.203125 C 8.242188 0.203125 7.53125 0.1875 6.78125 0.15625 L 4.953125 0.078125 C 3.609375 0.015625 2.210938 -0.078125 0.765625 -0.203125 Z M 0.765625 -2.875 "/></g></g></g><g fill="#000000" fill-opacity="1"><g transform="translate(228.181933, 175.870827)"><g><path d="M 12.1875 0 L 1.1875 0 L 1.1875 -13.875 L 12.1875 -13.875 L 12.1875 -11.09375 L 4.75 -11.09375 L 4.75 -8.421875 L 10.59375 -8.421875 L 10.59375 -5.640625 L 4.75 -5.640625 L 4.75 -2.78125 L 12.1875 -2.78125 Z M 12.1875 0 "/></g></g></g><g fill="#000000" fill-opacity="1"><g transform="translate(242.268556, 175.870827)"><g/></g></g><g fill="#000000" fill-opacity="1"><g transform="translate(249.718108, 175.870827)"><g><path d="M 3.671875 0 L -0.203125 0 L 5.046875 -13.875 L 9.015625 -13.875 L 14.265625 0 L 10.40625 0 L 9.515625 -2.484375 L 4.5625 -2.484375 Z M 5.453125 -5.046875 L 8.625 -5.046875 L 7.03125 -9.703125 Z M 5.453125 -5.046875 "/></g></g></g><g fill="#000000" fill-opacity="1"><g transform="translate(265.290645, 175.870827)"><g><path d="M 7.734375 0 L 0.59375 0 L 0.59375 -2.78125 L 2.375 -2.78125 L 2.375 -11.09375 L 0.59375 -11.09375 L 0.59375 -13.875 L 7.734375 -13.875 L 7.734375 -11.09375 L 5.9375 -11.09375 L 5.9375 -2.78125 L 7.734375 -2.78125 Z M 7.734375 0 "/></g></g></g><g fill="#000000" fill-opacity="1"><g transform="translate(275.117662, 175.870827)"><g/></g></g><g fill="#000000" fill-opacity="1"><g transform="translate(282.567219, 175.870827)"><g><path d="M 13.28125 0 L 9.703125 0 L 9.703125 -5.640625 L 4.75 -5.640625 L 4.75 0 L 1.1875 0 L 1.1875 -13.875 L 4.75 -13.875 L 4.75 -8.421875 L 9.703125 -8.421875 L 9.703125 -13.875 L 13.28125 -13.875 Z M 13.28125 0 "/></g></g></g><g fill="#000000" fill-opacity="1"><g transform="translate(298.535989, 175.870827)"><g><path d="M 10.109375 -13.875 L 13.671875 -13.875 L 13.671875 -3.765625 C 13.671875 -2.378906 13.351562 -1.367188 12.71875 -0.734375 C 12.09375 -0.109375 11.085938 0.203125 9.703125 0.203125 L 5.15625 0.203125 C 3.769531 0.203125 2.757812 -0.109375 2.125 -0.734375 C 1.5 -1.367188 1.1875 -2.378906 1.1875 -3.765625 L 1.1875 -13.875 L 4.75 -13.875 L 4.75 -3.765625 C 4.75 -2.972656 5.144531 -2.578125 5.9375 -2.578125 L 8.921875 -2.578125 C 9.710938 -2.578125 10.109375 -2.972656 10.109375 -3.765625 Z M 10.109375 -13.875 "/></g></g></g><g fill="#000000" fill-opacity="1"><g transform="translate(314.901016, 175.870827)"><g><path d="M 1.1875 -13.875 L 9.109375 -13.875 C 10.410156 -13.875 11.363281 -13.578125 11.96875 -12.984375 C 12.570312 -12.398438 12.875 -11.503906 12.875 -10.296875 C 12.875 -9.503906 12.703125 -8.859375 12.359375 -8.359375 C 12.015625 -7.867188 11.59375 -7.523438 11.09375 -7.328125 C 12.164062 -7.035156 12.894531 -6.320312 13.28125 -5.1875 C 13.40625 -4.78125 13.46875 -4.304688 13.46875 -3.765625 C 13.46875 -2.472656 13.164062 -1.519531 12.5625 -0.90625 C 11.957031 -0.300781 11.003906 0 9.703125 0 L 1.1875 0 Z M 9.90625 -4.359375 C 9.90625 -5.148438 9.507812 -5.546875 8.71875 -5.546875 L 4.75 -5.546875 L 4.75 -2.78125 L 8.71875 -2.78125 C 9.507812 -2.78125 9.90625 -3.175781 9.90625 -3.96875 Z M 9.3125 -9.90625 C 9.3125 -10.695312 8.914062 -11.09375 8.125 -11.09375 L 4.75 -11.09375 L 4.75 -8.328125 L 8.125 -8.328125 C 8.914062 -8.328125 9.3125 -8.722656 9.3125 -9.515625 Z M 9.3125 -9.90625 "/></g></g></g></svg>